<?xml version="1.0" encoding="utf-8"?>
<!-- Generator: Adobe Illustrator 18.0.0, SVG Export Plug-In . SVG Version: 6.00 Build 0)  -->
<!DOCTYPE svg PUBLIC "-//W3C//DTD SVG 1.1//EN" "http://www.w3.org/Graphics/SVG/1.1/DTD/svg11.dtd">
<svg version="1.1" id="Layer_1" xmlns="http://www.w3.org/2000/svg" xmlns:xlink="http://www.w3.org/1999/xlink" x="0px" y="0px"
	 viewBox="0 0 1633.9 666" enable-background="new 0 0 1633.9 666" xml:space="preserve">
<g>
	<linearGradient id="SVGID_1_" gradientUnits="userSpaceOnUse" x1="50.0767" y1="178.9265" x2="129.3204" y2="258.1702">
		<stop  offset="0" style="stop-color:#F47B26"/>
		<stop  offset="0.2282" style="stop-color:#F68C22"/>
		<stop  offset="0.4749" style="stop-color:#F7991E"/>
		<stop  offset="0.7292" style="stop-color:#F8A11B"/>
		<stop  offset="1" style="stop-color:#F8A31A"/>
	</linearGradient>
	<polygon fill="url(#SVGID_1_)" points="40.5,188.5 132.7,225.3 111.2,276.3 	"/>
	<linearGradient id="SVGID_2_" gradientUnits="userSpaceOnUse" x1="88.9443" y1="129.6999" x2="152.8803" y2="193.6358">
		<stop  offset="0" style="stop-color:#FCB121"/>
		<stop  offset="0.2859" style="stop-color:#FDBC18"/>
		<stop  offset="0.6314" style="stop-color:#FDC40F"/>
		<stop  offset="1" style="stop-color:#FDC70A"/>
	</linearGradient>
	<polygon fill="url(#SVGID_2_)" points="26.8,191.8 121.2,225.3 177.6,94.1 	"/>
	<linearGradient id="SVGID_3_" gradientUnits="userSpaceOnUse" x1="194.7953" y1="68.4042" x2="687.7468" y2="561.3557">
		<stop  offset="0" style="stop-color:#F04B35"/>
		<stop  offset="0.6065" style="stop-color:#CD2927"/>
		<stop  offset="1" style="stop-color:#BF1621"/>
	</linearGradient>
	<path fill="url(#SVGID_3_)" d="M809.1,225.9c12.1,80.6-9.9,407.6-351.2,407.6c-273.9,0-359-234.2-359-354.5
		c0-119.3,61.3-228.6,192.2-228.6c154.6,0,173.4,191.1,270.4,224.6C677.5,314.9,753.9,285.6,809.1,225.9z"/>
	<linearGradient id="SVGID_4_" gradientUnits="userSpaceOnUse" x1="469.2167" y1="202.429" x2="726.1891" y2="459.4015">
		<stop  offset="0" style="stop-color:#7E0009"/>
		<stop  offset="0.2378" style="stop-color:#8A000E"/>
		<stop  offset="0.7027" style="stop-color:#A90B19"/>
		<stop  offset="1" style="stop-color:#C0131E"/>
	</linearGradient>
	<path fill="url(#SVGID_4_)" d="M810.2,225.3c-124.6,134.7-479.8,116-479.8,116c31.2,101.1,125.4,174.6,236.7,174.6
		C684,515.9,782,434.9,808,326C814.2,282.7,813.3,245.9,810.2,225.3z"/>
	<linearGradient id="SVGID_5_" gradientUnits="userSpaceOnUse" x1="379.0996" y1="138.2845" x2="672.7383" y2="431.9232">
		<stop  offset="0" style="stop-color:#F26537"/>
		<stop  offset="0.4079" style="stop-color:#E5552D"/>
		<stop  offset="1" style="stop-color:#D94424"/>
	</linearGradient>
	<path fill="url(#SVGID_5_)" d="M712.8,184.9c-20.4,41.3-63,69.6-112.1,69.6c-69.1,0-125.1-56-125.1-125.1
		c0-18.1,3.8-35.3,10.8-50.8c-94.1,19.7-164.8,103.2-164.8,203.2c0,114.7,93,207.6,207.6,207.6c114.7,0,207.6-93,207.6-207.6
		C736.8,246.8,728.1,213.8,712.8,184.9z"/>
	<linearGradient id="SVGID_6_" gradientUnits="userSpaceOnUse" x1="442.2911" y1="230.3812" x2="658.2099" y2="446.3">
		<stop  offset="0" style="stop-color:#F36E38"/>
		<stop  offset="0.4494" style="stop-color:#E55B2C"/>
		<stop  offset="1" style="stop-color:#DA4B24"/>
	</linearGradient>
	<path fill="url(#SVGID_6_)" d="M511,424c-71.9,0-136.5-31.9-180.2-82.2c25.5,85.4,104.7,147.6,198.4,147.6
		c114.4,0,207.1-92.7,207.1-207.1c0-5.6-0.2-11.1-0.7-16.5C702.7,358.1,614.6,424,511,424z"/>
	<linearGradient id="SVGID_7_" gradientUnits="userSpaceOnUse" x1="214.3377" y1="161.9309" x2="245.9659" y2="193.5591">
		<stop  offset="0" style="stop-color:#FCB121"/>
		<stop  offset="0.2859" style="stop-color:#FDBC18"/>
		<stop  offset="0.6314" style="stop-color:#FDC40F"/>
		<stop  offset="1" style="stop-color:#FDC70A"/>
	</linearGradient>
	<path fill="url(#SVGID_7_)" d="M252.5,177.7c0,12.4-10,22.4-22.4,22.4c-12.4,0-22.4-10-22.4-22.4c0-12.4,10-22.4,22.4-22.4
		C242.5,155.4,252.5,165.4,252.5,177.7z"/>
</g>
<g>
	<g>
		<path fill="#323232" d="M946.5,549.9v-91.4h67.8v15.5H965v20.3h45.9v15.4H965v24.9h51.1v15.4H946.5z"/>
		<path fill="#323232" d="M1114.2,549.9h-20.1l-8-20.8h-36.6l-7.5,20.8h-19.6l35.6-91.4h19.5L1114.2,549.9z M1080.2,513.7
			l-12.6-33.9l-12.3,33.9H1080.2z"/>
		<path fill="#323232" d="M1119.3,520.1l18-1.7c1.1,6,3.3,10.5,6.6,13.3c3.3,2.8,7.8,4.2,13.4,4.2c5.9,0,10.4-1.3,13.4-3.8
			c3-2.5,4.5-5.5,4.5-8.8c0-2.2-0.6-4-1.9-5.5c-1.3-1.5-3.5-2.8-6.6-4c-2.2-0.7-7.1-2.1-14.8-4c-9.9-2.4-16.8-5.5-20.8-9
			c-5.6-5-8.4-11.2-8.4-18.4c0-4.7,1.3-9,4-13.1c2.6-4.1,6.4-7.1,11.4-9.3c5-2.1,11-3.2,18-3.2c11.5,0,20.1,2.5,25.9,7.6
			c5.8,5,8.8,11.7,9.1,20.1l-18.5,0.8c-0.8-4.7-2.5-8.1-5.1-10.1c-2.6-2.1-6.5-3.1-11.7-3.1c-5.4,0-9.6,1.1-12.6,3.3
			c-2,1.4-2.9,3.3-2.9,5.7c0,2.2,0.9,4,2.7,5.6c2.3,2,8,4,17,6.1c9,2.1,15.6,4.3,19.9,6.6c4.3,2.3,7.7,5.4,10.1,9.3
			c2.4,3.9,3.6,8.8,3.6,14.6c0,5.2-1.5,10.1-4.4,14.7c-2.9,4.6-7,8-12.3,10.2c-5.3,2.2-12,3.3-19.9,3.3c-11.6,0-20.4-2.7-26.6-8
			C1124.2,538.1,1120.5,530.4,1119.3,520.1z"/>
		<path fill="#323232" d="M1233.2,549.9v-38.5l-33.5-53h21.6l21.5,36.2l21.1-36.2h21.3l-33.6,53.1v38.4H1233.2z"/>
		<path fill="#323232" d="M1327.6,458.4h36.6c7.2,0,12.6,0.3,16.2,0.9c3.6,0.6,6.7,1.9,9.5,3.8c2.8,1.9,5.1,4.5,7,7.6
			c1.9,3.2,2.8,6.7,2.8,10.7c0,4.3-1.2,8.2-3.5,11.8c-2.3,3.6-5.4,6.3-9.4,8c5.6,1.6,9.9,4.4,12.9,8.3c3,3.9,4.5,8.5,4.5,13.8
			c0,4.2-1,8.2-2.9,12.1c-1.9,3.9-4.6,7.1-7.9,9.4c-3.3,2.3-7.5,3.8-12.4,4.3c-3.1,0.3-10.5,0.5-22.3,0.6h-31.1V458.4z
			 M1346.1,473.7v21.1h12.1c7.2,0,11.7-0.1,13.4-0.3c3.2-0.4,5.6-1.5,7.5-3.3c1.8-1.8,2.7-4.2,2.7-7.1c0-2.8-0.8-5.1-2.3-6.9
			c-1.6-1.8-3.9-2.8-7-3.2c-1.8-0.2-7.1-0.3-15.8-0.3H1346.1z M1346.1,510v24.5h17.1c6.6,0,10.9-0.2,12.7-0.6c2.7-0.5,5-1.7,6.7-3.6
			c1.7-1.9,2.6-4.5,2.6-7.8c0-2.7-0.7-5.1-2-7c-1.3-1.9-3.3-3.3-5.8-4.2c-2.5-0.9-8-1.3-16.4-1.3H1346.1z"/>
		<path fill="#323232" d="M1502.3,549.9h-20.1l-8-20.8h-36.6l-7.5,20.8h-19.6l35.6-91.4h19.5L1502.3,549.9z M1468.3,513.7
			l-12.6-33.9l-12.4,33.9H1468.3z"/>
		<path fill="#323232" d="M1508.3,504.7c0-9.3,1.4-17.1,4.2-23.5c2.1-4.7,4.9-8.8,8.5-12.5c3.6-3.7,7.5-6.4,11.8-8.2
			c5.7-2.4,12.3-3.6,19.7-3.6c13.5,0,24.2,4.2,32.3,12.5c8.1,8.4,12.1,20,12.1,34.9c0,14.8-4,26.3-12,34.6
			c-8,8.3-18.8,12.5-32.2,12.5c-13.6,0-24.4-4.1-32.4-12.4C1512.3,530.7,1508.3,519.3,1508.3,504.7z M1527.3,504.1
			c0,10.4,2.4,18.2,7.2,23.5c4.8,5.3,10.9,8,18.2,8c7.4,0,13.4-2.6,18.1-8c4.7-5.3,7.1-13.3,7.1-23.9c0-10.5-2.3-18.3-6.9-23.5
			c-4.6-5.2-10.7-7.7-18.3-7.7c-7.6,0-13.7,2.6-18.4,7.8C1529.7,485.7,1527.3,493.6,1527.3,504.1z"/>
	</g>
</g>
<g>
	<path fill="#323232" d="M956.9,188.6h168.5v94.2h-112.4c-2.7,4-5.5,7.8-8.5,11.5h133.9l-3.8,60c-0.9,12.1-3.6,21.2-8.1,27.3
		c-4.5,6.1-9.2,9.7-14.1,10.9c-4.8,1.1-18.5,1.7-40.9,1.7c-2-9.1-4.6-18.8-7.8-29.1c-10.9,12.2-23.7,22.8-38.4,31.7
		c-7.1-5.5-15.8-11.5-26.1-18c30.3-16.4,50.6-36.4,61-59.9h-21.4c-16.6,29.6-45.4,53.2-86.3,70.8c-5.2-6.2-12.3-13.5-21.3-21.9
		c34.7-13.4,58.7-29.7,72-48.9h-21.6c-8.7,7.9-18.1,15.1-28.2,21.7c-4.9-5.2-12-12-21.3-20.4c18.5-9.3,34.1-21.8,47-37.3h-22.3
		V188.6z M1095.3,212.7H987.1v12.8h108.1V212.7z M1095.3,258.8V246H987.1v12.8H1095.3z M1065,363.9c7.7,0.9,15,1.4,22,1.4
		c5,0,8.4-0.5,10.2-1.4c1.8-0.9,3.3-2.5,4.6-4.7c1.3-2.2,2.3-7.6,3.2-16.3c0.9-8.6,1.4-16.7,1.7-24h-14.4
		C1085.4,335.8,1076.3,350.8,1065,363.9z"/>
	<path fill="#323232" d="M1244.7,360.8h50.4v-39.1h-41.7V295h41.7v-37.3h-21.4c-3.3,10.9-7.1,20.8-11.4,29.7l-24.3-14.7v90.9
		c0,7.9-1.3,14.1-3.9,18.7c-2.6,4.6-6.7,7.5-12.2,8.7c-5.5,1.2-14,2-25.6,2.4c-1.3-8.8-3.8-18.7-7.6-29.5c4.6,0.7,9,1.1,13.2,1.1
		c7,0,10.4-4.1,10.4-12.4v-27.1h-19.9c-0.4,30.1-6.4,53.9-18.1,71.4c-5.2-8.3-11.9-16.5-20.2-24.8c5.3-11.3,8.8-23.7,10.7-37.2
		c1.8-13.5,2.8-37,2.8-70.5v-74h70.4v81.1c9-20.8,15.6-45.1,19.5-72.9l28,3c-1.4,10.3-3.1,20.1-5.1,29.3h14.7v-48.4h29.3V231h40.8
		v26.7h-40.8V295h36.9v26.7h-36.9v39.1h46.3v26.7h-125.9V360.8z M1193.3,299.6h19v-27.8h-18.7
		C1193.6,281.8,1193.5,291.1,1193.3,299.6z M1212.3,218.2h-18.7V246h18.7V218.2z"/>
	<path fill="#323232" d="M1379.3,360h89.9v-33.7h-70.6V300h70.6v-20.4h-76v-26.1h183.3v26.1h-75.1V300h69.7v26.3h-27.8
		c6.7,5.9,13.8,12.7,21.5,20.4l-15.6,13.2h41.7v26.5h-211.5V360z M1585.6,247.5h-30.4v-15.4h-140.3v15.4h-30.4v-42.6h83.8
		c-3-7.7-5.7-14.3-8-19.8l37.3-3.7c2.2,5.9,4.7,13.8,7.6,23.5h80.3V247.5z M1517,338.2l14.1-11.9h-29.7V360h37.1
		C1531.1,352,1523.9,344.8,1517,338.2z"/>
</g>
</svg>
